<?xml version="1.0" encoding="UTF-8"?>
<svg width="48px" height="31px" viewBox="0 0 48 31" version="1.1" xmlns="http://www.w3.org/2000/svg" xmlns:xlink="http://www.w3.org/1999/xlink">
    <!-- Generator: Sketch 43.2 (39069) - http://www.bohemiancoding.com/sketch -->
    <title>Group 10</title>
    <desc>Created with Sketch.</desc>
    <defs>
        <path d="M23.0041657,31.7686762 C23.0013954,31.679457 23,31.5898915 23,31.5 C23,26.8055796 26.8055796,23 31.5,23 C31.5898915,23 31.679457,23.0013954 31.7686762,23.0041657 C31.816836,23.0014012 31.8653612,23 31.9142136,23 C33.2949254,23 34.4142136,24.1192881 34.4142136,25.5 C34.4142136,26.8520008 33.3409913,27.9533371 32,27.9985557 L32,28 C29.790861,28 28,29.790861 28,32 L27.9985557,32 C27.9533371,33.3409913 26.8520008,34.4142136 25.5,34.4142136 C24.1192881,34.4142136 23,33.2949254 23,31.9142136 C23,31.8653612 23.0014012,31.816836 23.0041657,31.7686762 Z" id="path-1"></path>
    </defs>
    <g id="wireframe" stroke="none" stroke-width="1" fill="none" fill-rule="evenodd">
        <g id="p-device" transform="translate(-285.000000, -290.000000)">
            <g id="Group-9" transform="translate(27.000000, 257.000000)">
                <g id="Group-5" transform="translate(240.000000, 0.000000)">
                    <g id="Group-10" transform="translate(14.000000, 20.000000)">
                        <rect id="Rectangle-5" x="0" y="4" width="56" height="48"></rect>
                        <g id="Group-15" transform="translate(27.748737, 24.748737) rotate(-315.000000) translate(-27.748737, -24.748737) translate(10.248737, 7.248737)">
                            <g id="Combined-Shape">
                                <use fill="#05BED7" fill-rule="evenodd" xlink:href="#path-1"></use>
                                <path stroke="#05BED7" stroke-width="1" d="M31.9351832,27.5004572 L31.7561625,27.5064938 L31.5,27.5151317 L31.5,27.5274644 L31.5,27.9985557 L31.5,28 L32,28 L32,27.5 C31.9783569,27.5 31.9567494,27.5001528 31.9351787,27.5004574 C31.8752157,27.501304 31.8155363,27.5033235 31.7561625,27.5064938 C31.670111,27.5110887 31.5847012,27.5181011 31.5,27.5274644 C29.4141917,27.7580388 27.7580388,29.4141917 27.5274644,31.5 C27.5181011,31.5847012 27.5110887,31.670111 27.5064938,31.7561625 C27.5033235,31.8155363 27.501304,31.8752157 27.5004574,31.9351787 C27.5001528,31.9567494 27.5,31.9783569 27.5,32 L28,32 L28,31.5 L27.9985557,31.5 L27.5274644,31.5 L27.5151317,31.5 L27.5064938,31.7561625 L27.5004574,31.9351787 L27.4988398,31.9831494 C27.4625894,33.0581801 26.5789521,33.9142136 25.5,33.9142136 C24.3954305,33.9142136 23.5,33.0187831 23.5,31.9142136 C23.5,31.8750806 23.5011179,31.8361104 23.503344,31.7973298 L23.5039248,31.7531585 C23.50131,31.6689477 23.5,31.5845553 23.5,31.5 C23.5,27.081722 27.081722,23.5 31.5,23.5 C31.5845553,23.5 31.6689477,23.50131 31.7531585,23.5039248 C31.8361104,23.5011179 31.8750806,23.5 31.9142136,23.5 C33.0187831,23.5 33.9142136,24.3954305 33.9142136,25.5 C33.9142136,26.5789521 33.0581801,27.4625894 31.9831494,27.4988398 L31.9351832,27.5004572 Z"></path>
                            </g>
                            <circle id="Oval-23-Copy" fill="#05BED7" cx="32" cy="11" r="3"></circle>
                            <path d="M5.5,32 C5.5,33.3807119 4.38071187,34.5 3,34.5 C1.61928813,34.5 0.500000012,33.3807119 0.5,32 C0.5,14.6030305 14.6030303,0.500000102 31.9999998,0.5 C33.3807118,0.5 34.5,1.6192881 34.5,3 C34.5,4.38071187 33.3807119,5.5 32,5.5 C17.3644541,5.5 5.5,17.3644541 5.5,32 Z" id="Combined-Shape" stroke="#05BED7"></path>
                            <path d="M32,14 L32,8 C18.745166,8 8,18.745166 8,32 C8,33.6568542 9.34314575,35 11,35 C12.6568542,35 14,33.6568542 14,32 C14,22.0588745 22.0588745,14 32,14 Z" id="Combined-Shape" fill="#05BED7"></path>
                            <path d="M32,21.0116951 L32,20.9499909 C33.1411202,20.7183558 34,19.709479 34,18.5 C34,17.290521 33.1411202,16.2816442 32,16.0500091 L32,16 C23.163444,16 16,23.163444 16,32 L16.0500091,32 C16.2816442,33.1411202 17.290521,34 18.5,34 C19.709479,34 20.7183558,33.1411202 20.9499909,32 L21.0116951,32 C21.0039274,31.8343086 21,31.667613 21,31.5 C21,25.7010101 25.7010101,21 31.5,21 C31.667613,21 31.8343086,21.0039274 32,21.0116951 Z" id="Combined-Shape" fill="#05BED7"></path>
                        </g>
                    </g>
                </g>
            </g>
        </g>
    </g>
</svg>