<?xml version="1.0" encoding="UTF-8"?>
<svg width="22px" height="22px" viewBox="0 0 22 22" version="1.1" xmlns="http://www.w3.org/2000/svg" xmlns:xlink="http://www.w3.org/1999/xlink">
    <!-- Generator: Sketch 43.2 (39069) - http://www.bohemiancoding.com/sketch -->
    <title>device-outine</title>
    <desc>Created with Sketch.</desc>
    <defs>
        <path d="M11.0314779,0 C16.9827476,0 21.2220148,2.9906311 21.2220148,2.9906311 C22.1675277,3.54809015 22.0298986,4 20.9249258,4 L1.13802994,4 C0.0284393124,4 -0.105985494,3.52543974 0.850517151,2.98546017 C0.850517151,2.98546017 5.08020813,1.2246468e-16 11.0314779,0 Z" id="path-1"></path>
        <circle id="path-2" cx="11" cy="11" r="4"></circle>
        <path d="M11.0314779,18 C16.9827476,18 21.2220148,20.9906311 21.2220148,20.9906311 C22.1675277,21.5480902 22.0298986,22 20.9249258,22 L1.13802994,22 C0.0284393124,22 -0.105985494,21.5254397 0.850517151,20.9854602 C0.850517151,20.9854602 5.08020813,18 11.0314779,18 Z" id="path-3"></path>
    </defs>
    <g id="wireframe" stroke="none" stroke-width="1" fill="none" fill-rule="evenodd">
        <g id="home" transform="translate(-252.000000, -575.000000)">
            <g id="Group-5-Copy" transform="translate(225.000000, 567.000000)">
                <g id="device-outine" transform="translate(27.000000, 8.000000)">
                    <circle id="Oval-19" stroke="#17B497" cx="11" cy="11" r="8.5"></circle>
                    <g id="Triangle">
                        <use fill="#17B497" fill-rule="evenodd" xlink:href="#path-1"></use>
                        <path stroke="#17B497" stroke-width="1" d="M21.0878798,3.49585406 C21.0374858,3.49856481 20.9830862,3.5 20.9249258,3.5 L1.13802994,3.5 C1.07843348,3.5 1.02280342,3.49842291 0.971414364,3.49545509 C1.0096576,3.47120293 1.05132609,3.44626978 1.09632069,3.42086874 C1.25846658,3.30952082 1.49971721,3.15478871 1.85257134,2.95304247 C2.44676831,2.61330718 3.13283684,2.27279084 3.90066322,1.95464908 C6.09519624,1.0453646 8.49855824,0.5 11.0314779,0.5 C13.5643434,0.5 15.9694926,1.04631779 18.1670149,1.9572073 C18.9359174,2.27592316 19.623137,2.61705848 20.2184833,2.95741633 C20.5720403,3.15954387 20.8138425,3.31457939 20.9337885,3.39919642 C20.9911942,3.43354159 21.0424003,3.4657205 21.0878798,3.49585406 Z"></path>
                    </g>
                    <g id="Oval-20">
                        <use fill="#17B497" fill-rule="evenodd" xlink:href="#path-2"></use>
                        <circle stroke="#17B497" stroke-width="1" cx="11" cy="11" r="3.5"></circle>
                    </g>
                    <g id="Triangle" transform="translate(11.027343, 20.000000) scale(1, -1) translate(-11.027343, -20.000000) ">
                        <use fill="#17B497" fill-rule="evenodd" xlink:href="#path-3"></use>
                        <path stroke="#17B497" stroke-width="1" d="M21.0878798,21.4958541 C21.0374858,21.4985648 20.9830862,21.5 20.9249258,21.5 L1.13802994,21.5 C1.07843348,21.5 1.02280342,21.4984229 0.971414364,21.4954551 C1.0096576,21.4712029 1.05132609,21.4462698 1.09632069,21.4208687 C1.25846658,21.3095208 1.49971721,21.1547887 1.85257134,20.9530425 C2.44676831,20.6133072 3.13283684,20.2727908 3.90066322,19.9546491 C6.09519624,19.0453646 8.49855824,18.5 11.0314779,18.5 C13.5643434,18.5 15.9694926,19.0463178 18.1670149,19.9572073 C18.9359174,20.2759232 19.623137,20.6170585 20.2184833,20.9574163 C20.5720403,21.1595439 20.8138425,21.3145794 20.9337885,21.3991964 C20.9911942,21.4335416 21.0424003,21.4657205 21.0878798,21.4958541 Z"></path>
                    </g>
                </g>
            </g>
        </g>
    </g>
</svg>