<?xml version="1.0" encoding="UTF-8"?>
<svg width="40px" height="40px" viewBox="0 0 40 40" version="1.1" xmlns="http://www.w3.org/2000/svg" xmlns:xlink="http://www.w3.org/1999/xlink">
    <!-- Generator: Sketch 43.2 (39069) - http://www.bohemiancoding.com/sketch -->
    <title>filter</title>
    <desc>Created with Sketch.</desc>
    <defs>
        <linearGradient x1="50%" y1="0%" x2="50%" y2="96.0411136%" id="linearGradient-1">
            <stop stop-color="#17B497" offset="0%"></stop>
            <stop stop-color="#1F92AC" offset="100%"></stop>
        </linearGradient>
    </defs>
    <g id="wireframe" stroke="none" stroke-width="1" fill="none" fill-rule="evenodd">
        <g id="p-Dict" transform="translate(-307.000000, -80.000000)">
            <g id="Group-6" transform="translate(27.000000, 80.000000)">
                <g id="filter" transform="translate(280.000000, 0.000000)">
                    <circle id="Oval-6" fill="url(#linearGradient-1)" cx="20" cy="20" r="20"></circle>
                    <path d="M18.998072,13.1110613 C19.2990429,13.0384623 19.6131823,13 19.9361187,13 C20.2266122,13 20.5098606,13.0310505 20.7827321,13.0900169 L27.7992643,13.0072793 C30.0067475,12.9812491 30.5347366,14.2216771 28.9676292,15.7887844 L23.9291923,20.8272213 L23.9291923,24.60287 C23.9291923,26.810424 22.3322704,29.399846 20.3565692,30.3894101 L19.5156683,30.8105899 C17.542563,31.7988538 15.9430452,30.8086716 15.9430452,28.6100229 L15.9430452,21.1069264 L10.8981887,16.06207 C9.33952108,14.5034023 9.85884867,13.2188292 12.0729732,13.1927207 L18.998072,13.1110613 Z" id="Combined-Shape" fill="#FFFFFF"></path>
                </g>
            </g>
        </g>
    </g>
</svg>