<?xml version="1.0" encoding="UTF-8"?>
<svg width="22px" height="20px" viewBox="0 0 22 20" version="1.1" xmlns="http://www.w3.org/2000/svg" xmlns:xlink="http://www.w3.org/1999/xlink">
    <!-- Generator: Sketch 43.2 (39069) - http://www.bohemiancoding.com/sketch -->
    <title>home-outline</title>
    <desc>Created with Sketch.</desc>
    <defs>
        <path d="M4.6328125,6.1015625 C4.28331981,7.15004058 4.89451376,8 5.99406028,8 L18.0059397,8 C19.1072288,8 19.7176907,7.15307221 19.3671875,6.1015625 L18.6328125,3.8984375 C18.2833198,2.84995942 17.0980496,2 15.9914698,2 L8.0085302,2 C6.8992496,2 5.71769074,2.84692779 5.3671875,3.8984375 L4.6328125,6.1015625 Z" id="path-1"></path>
        <rect id="path-2" x="1" y="6" width="22" height="16" rx="2"></rect>
        <circle id="path-3" cx="12" cy="14" r="3"></circle>
    </defs>
    <g id="wireframe" stroke="none" stroke-width="1" fill="none" fill-rule="evenodd">
        <g id="home" transform="translate(-27.000000, -626.000000)">
            <g id="Group-2" transform="translate(0.000000, 617.000000)">
                <g id="home-outline" transform="translate(26.000000, 7.000000)">
                    <rect id="Rectangle-54" x="0" y="0" width="24" height="24"></rect>
                    <g id="Rectangle-168-Copy-2">
                        <use fill="#17B497" fill-rule="evenodd" xlink:href="#path-1"></use>
                        <path stroke="#17B497" stroke-width="1" d="M5.10715415,6.25967638 L5.84152915,4.05655138 C6.12351601,3.21059081 7.11300863,2.5 8.0085302,2.5 L15.9914698,2.5 C16.8841017,2.5 17.8774351,3.21344409 18.1584709,4.05655138 L18.8928459,6.25967638 C19.1352137,6.98677993 18.7666212,7.5 18.0059397,7.5 L5.99406028,7.5 C5.23570894,7.5 4.86561093,6.98430605 5.10715415,6.25967638 Z"></path>
                    </g>
                    <g id="Rectangle-168">
                        <use fill="#FFFFFF" fill-rule="evenodd" xlink:href="#path-2"></use>
                        <rect stroke="#17B497" stroke-width="1" x="1.5" y="6.5" width="21" height="15" rx="2"></rect>
                    </g>
                    <circle id="Oval-85-Copy" stroke="#17B497" cx="12" cy="14" r="4.5"></circle>
                    <g id="Oval-85-Copy">
                        <use fill="#17B497" fill-rule="evenodd" xlink:href="#path-3"></use>
                        <circle stroke="#17B497" stroke-width="1" cx="12" cy="14" r="2.5"></circle>
                    </g>
                </g>
            </g>
        </g>
    </g>
</svg>