<?xml version="1.0" encoding="UTF-8"?>
<svg width="22px" height="20px" viewBox="0 0 22 20" version="1.1" xmlns="http://www.w3.org/2000/svg" xmlns:xlink="http://www.w3.org/1999/xlink">
    <!-- Generator: Sketch 43.2 (39069) - http://www.bohemiancoding.com/sketch -->
    <title>home</title>
    <desc>Created with Sketch.</desc>
    <defs>
        <path d="M3.6328125,4.1015625 C3.28331981,5.15004058 3.89451376,6 4.99406028,6 L17.0059397,6 C18.1072288,6 18.7176907,5.15307221 18.3671875,4.1015625 L17.6328125,1.8984375 C17.2833198,0.84995942 16.0980496,0 14.9914698,0 L7.0085302,0 C5.8992496,0 4.71769074,0.846927792 4.3671875,1.8984375 L3.6328125,4.1015625 Z" id="path-1"></path>
        <rect id="path-2" x="0" y="4" width="22" height="16" rx="2"></rect>
        <circle id="path-3" cx="11" cy="12" r="3"></circle>
    </defs>
    <g id="wireframe" stroke="none" stroke-width="1" fill="none" fill-rule="evenodd">
        <g id="p-home" transform="translate(-27.000000, -626.000000)">
            <g id="home" transform="translate(27.000000, 626.000000)">
                <g id="Rectangle-168-Copy-2">
                    <use fill="#FFFFFF" fill-rule="evenodd" xlink:href="#path-1"></use>
                    <path stroke="#FFFFFF" stroke-width="1" d="M4.10715415,4.25967638 L4.84152915,2.05655138 C5.12351601,1.21059081 6.11300863,0.5 7.0085302,0.5 L14.9914698,0.5 C15.8841017,0.5 16.8774351,1.21344409 17.1584709,2.05655138 L17.8928459,4.25967638 C18.1352137,4.98677993 17.7666212,5.5 17.0059397,5.5 L4.99406028,5.5 C4.23570894,5.5 3.86561093,4.98430605 4.10715415,4.25967638 L4.10715415,4.25967638 Z"></path>
                </g>
                <g id="Rectangle-168">
                    <use fill="#17B497" fill-rule="evenodd" xlink:href="#path-2"></use>
                    <rect stroke="#FFFFFF" stroke-width="1" x="0.5" y="4.5" width="21" height="15" rx="2"></rect>
                </g>
                <circle id="Oval-85-Copy" stroke="#FFFFFF" cx="11" cy="12" r="4.5"></circle>
                <g id="Oval-85-Copy">
                    <use fill="#FFFFFF" fill-rule="evenodd" xlink:href="#path-3"></use>
                    <circle stroke="#FFFFFF" stroke-width="1" cx="11" cy="12" r="2.5"></circle>
                </g>
            </g>
        </g>
    </g>
</svg>