<?xml version="1.0" encoding="UTF-8"?>
<svg width="24px" height="22px" viewBox="0 0 24 22" version="1.1" xmlns="http://www.w3.org/2000/svg" xmlns:xlink="http://www.w3.org/1999/xlink">
    <!-- Generator: Sketch 43.2 (39069) - http://www.bohemiancoding.com/sketch -->
    <title>record-outline</title>
    <desc>Created with Sketch.</desc>
    <defs>
        <rect id="path-1" x="7" y="17" width="10" height="2" rx="1"></rect>
        <rect id="path-2" x="7" y="9" width="10" height="2" rx="1"></rect>
        <path d="M20.4356846,6.9605808 C20.1950626,5.87778192 19.1017394,5 18.0020869,5 L15.9979131,5 C14.8944962,5 14,5.8926228 14,6.99508929 L14,21.0049107 C14,22.1067681 14.8874333,23 15.999615,23 L22.000385,23 C23.1047419,23 23.8070717,22.1318226 23.5643154,21.0394192 L20.4356846,6.9605808 Z" id="path-3"></path>
        <path d="M3.56431538,6.9605808 C3.80493735,5.87778192 4.89826062,5 5.99791312,5 L8.00208688,5 C9.10550383,5 10,5.8926228 10,6.99508929 L10,21.0049107 C10,22.1067681 9.11256671,23 8.00038502,23 L1.99961498,23 C0.895258123,23 0.192928314,22.1318226 0.435684621,21.0394192 L3.56431538,6.9605808 Z" id="path-4"></path>
        <rect id="path-5" x="4" y="1" width="6" height="5" rx="2"></rect>
        <rect id="path-6" x="14" y="1" width="6" height="5" rx="2"></rect>
    </defs>
    <g id="wireframe" stroke="none" stroke-width="1" fill="none" fill-rule="evenodd">
        <g id="home" transform="translate(-176.000000, -575.000000)">
            <g id="Group-Copy" transform="translate(150.000000, 567.000000)">
                <g id="record-outline" transform="translate(26.000000, 7.000000)">
                    <rect id="Rectangle" x="0" y="0" width="24" height="24"></rect>
                    <g id="Rectangle-46-Copy">
                        <use fill="#FFFFFF" fill-rule="evenodd" xlink:href="#path-1"></use>
                        <rect stroke="#17B497" stroke-width="1" x="7.5" y="17.5" width="9" height="1" rx="0.5"></rect>
                    </g>
                    <g id="Rectangle-46">
                        <use fill="#FFFFFF" fill-rule="evenodd" xlink:href="#path-2"></use>
                        <rect stroke="#17B497" stroke-width="1" x="7.5" y="9.5" width="9" height="1" rx="0.5"></rect>
                    </g>
                    <g id="Rectangle-45">
                        <use fill="#FFFFFF" fill-rule="evenodd" xlink:href="#path-3"></use>
                        <path stroke="#17B497" stroke-width="1" d="M19.9475911,7.06904602 L23.0762218,21.1478844 C23.2488834,21.9248615 22.7881111,22.5 22.000385,22.5 L15.999615,22.5 C15.1663275,22.5 14.5,21.8333787 14.5,21.0049107 L14.5,6.99508929 C14.5,6.16915762 15.1702461,5.5 15.9979131,5.5 L18.0020869,5.5 C18.8683612,5.5 19.7580187,6.2159703 19.9475911,7.06904602 Z"></path>
                    </g>
                    <g id="Rectangle-45">
                        <use fill="#FFFFFF" fill-rule="evenodd" xlink:href="#path-4"></use>
                        <path stroke="#17B497" stroke-width="1" d="M4.05240891,7.06904602 C4.24198129,6.2159703 5.13163879,5.5 5.99791312,5.5 L8.00208688,5.5 C8.82975391,5.5 9.5,6.16915762 9.5,6.99508929 L9.5,21.0049107 C9.5,21.8333787 8.83367251,22.5 8.00038502,22.5 L1.99961498,22.5 C1.21188888,22.5 0.751116577,21.9248615 0.923778151,21.1478844 L4.05240891,7.06904602 Z"></path>
                    </g>
                    <g id="Rectangle-51">
                        <use fill="#17B497" fill-rule="evenodd" xlink:href="#path-5"></use>
                        <rect stroke="#17B497" stroke-width="1" x="4.5" y="1.5" width="5" height="4" rx="2"></rect>
                    </g>
                    <g id="Rectangle-50">
                        <use fill="#17B497" fill-rule="evenodd" xlink:href="#path-6"></use>
                        <rect stroke="#17B497" stroke-width="1" x="14.5" y="1.5" width="5" height="4" rx="2"></rect>
                    </g>
                </g>
            </g>
        </g>
    </g>
</svg>