<?xml version="1.0" encoding="UTF-8"?>
<svg width="24px" height="22px" viewBox="0 0 24 22" version="1.1" xmlns="http://www.w3.org/2000/svg" xmlns:xlink="http://www.w3.org/1999/xlink">
    <!-- Generator: Sketch 43.2 (39069) - http://www.bohemiancoding.com/sketch -->
    <title>record</title>
    <desc>Created with Sketch.</desc>
    <defs>
        <rect id="path-1" x="7" y="16" width="10" height="2" rx="1"></rect>
        <rect id="path-2" x="7" y="8" width="10" height="2" rx="1"></rect>
        <path d="M20.4356846,5.9605808 C20.1950626,4.87778192 19.1017394,4 18.0020869,4 L15.9979131,4 C14.8944962,4 14,4.8926228 14,5.99508929 L14,20.0049107 C14,21.1067681 14.8874333,22 15.999615,22 L22.000385,22 C23.1047419,22 23.8070717,21.1318226 23.5643154,20.0394192 L20.4356846,5.9605808 Z" id="path-3"></path>
        <path d="M3.56431538,5.9605808 C3.80493735,4.87778192 4.89826062,4 5.99791312,4 L8.00208688,4 C9.10550383,4 10,4.8926228 10,5.99508929 L10,20.0049107 C10,21.1067681 9.11256671,22 8.00038502,22 L1.99961498,22 C0.895258123,22 0.192928314,21.1318226 0.435684621,20.0394192 L3.56431538,5.9605808 Z" id="path-4"></path>
        <rect id="path-5" x="4" y="0" width="6" height="5" rx="2"></rect>
        <rect id="path-6" x="14" y="0" width="6" height="5" rx="2"></rect>
    </defs>
    <g id="wireframe" stroke="none" stroke-width="1" fill="none" fill-rule="evenodd">
        <g id="home-copy" transform="translate(-176.000000, -571.000000)">
            <g id="Group-Copy-2" transform="translate(150.000000, 563.000000)">
                <g id="record" transform="translate(26.000000, 8.000000)">
                    <g id="Rectangle-46-Copy">
                        <use fill="#FFFFFF" fill-rule="evenodd" xlink:href="#path-1"></use>
                        <rect stroke="#FFFFFF" stroke-width="1" x="7.5" y="16.5" width="9" height="1" rx="0.5"></rect>
                    </g>
                    <g id="Rectangle-46">
                        <use fill="#FFFFFF" fill-rule="evenodd" xlink:href="#path-2"></use>
                        <rect stroke="#FFFFFF" stroke-width="1" x="7.5" y="8.5" width="9" height="1" rx="0.5"></rect>
                    </g>
                    <g id="Rectangle-45">
                        <use fill="#17B497" fill-rule="evenodd" xlink:href="#path-3"></use>
                        <path stroke="#FFFFFF" stroke-width="1" d="M19.9475911,6.06904602 L23.0762218,20.1478844 C23.2488834,20.9248615 22.7881111,21.5 22.000385,21.5 L15.999615,21.5 C15.1663275,21.5 14.5,20.8333787 14.5,20.0049107 L14.5,5.99508929 C14.5,5.16915762 15.1702461,4.5 15.9979131,4.5 L18.0020869,4.5 C18.8683612,4.5 19.7580187,5.2159703 19.9475911,6.06904602 L19.9475911,6.06904602 Z"></path>
                    </g>
                    <g id="Rectangle-45">
                        <use fill="#17B497" fill-rule="evenodd" xlink:href="#path-4"></use>
                        <path stroke="#FFFFFF" stroke-width="1" d="M4.05240891,6.06904602 C4.24198129,5.2159703 5.13163879,4.5 5.99791312,4.5 L8.00208688,4.5 C8.82975391,4.5 9.5,5.16915762 9.5,5.99508929 L9.5,20.0049107 C9.5,20.8333787 8.83367251,21.5 8.00038502,21.5 L1.99961498,21.5 C1.21188888,21.5 0.751116577,20.9248615 0.923778151,20.1478844 L4.05240891,6.06904602 Z"></path>
                    </g>
                    <g id="Rectangle-51">
                        <use fill="#FFFFFF" fill-rule="evenodd" xlink:href="#path-5"></use>
                        <rect stroke="#FFFFFF" stroke-width="1" x="4.5" y="0.5" width="5" height="4" rx="2"></rect>
                    </g>
                    <g id="Rectangle-50">
                        <use fill="#FFFFFF" fill-rule="evenodd" xlink:href="#path-6"></use>
                        <rect stroke="#FFFFFF" stroke-width="1" x="14.5" y="0.5" width="5" height="4" rx="2"></rect>
                    </g>
                </g>
            </g>
        </g>
    </g>
</svg>