<?xml version="1.0" encoding="UTF-8"?>
<svg width="16px" height="20px" viewBox="0 0 16 20" version="1.1" xmlns="http://www.w3.org/2000/svg" xmlns:xlink="http://www.w3.org/1999/xlink">
    <!-- Generator: Sketch 43.2 (39069) - http://www.bohemiancoding.com/sketch -->
    <title>Group 21</title>
    <desc>Created with Sketch.</desc>
    <defs>
        <path d="M5,17 C5,18.6568542 6.34314575,20 8,20 C9.65685425,20 11,18.6568542 11,17 L5,17 Z" id="path-1"></path>
    </defs>
    <g id="wireframe" stroke="none" stroke-width="1" fill="none" fill-rule="evenodd">
        <g id="home-copy" transform="translate(-329.000000, -626.000000)">
            <g id="Group-3-Copy" transform="translate(300.000000, 617.000000)">
                <g id="Group-22" transform="translate(11.000000, 9.000000)">
                    <g id="Group-21" transform="translate(18.000000, 0.000000)">
                        <g id="Oval-21">
                            <use fill="#FFFFFF" fill-rule="evenodd" xlink:href="#path-1"></use>
                            <path stroke="#FFFFFF" stroke-width="1" d="M5.55000906,17.5 L10.4499909,17.5 C10.2183558,18.6411202 9.20947896,19.5 8,19.5 C6.79052104,19.5 5.78164422,18.6411202 5.55000906,17.5 Z"></path>
                        </g>
                        <path d="M12.5889039,10.5068272 L14.3120088,12.9957565 C15.3394175,14.4797913 14.8058408,15.5 13.0052166,15.5 L2.9947834,15.5 C1.18912883,15.5 0.657148206,14.4847519 1.68799121,12.9957565 L3.4110961,10.5068272 L3.5,10.3784105 L3.5,10.2222222 L3.5,4.99668583 C3.5,2.51533385 5.51823601,0.5 8,0.5 C10.4837368,0.5 12.5,2.51617637 12.5,4.99668583 L12.5,10.2222222 L12.5,10.3784105 L12.5889039,10.5068272 Z" id="Combined-Shape" stroke="#FFFFFF"></path>
                    </g>
                </g>
            </g>
        </g>
    </g>
</svg>